#!OML:ASF X:\für Bonn\!DataBase\2005_08_12_Daniel\c3d\Daniel.ASF
:FULLY-SPECIFIED
:DEGREES
82
root 11.9991 9.49404 -2.33072 -737.295 -65.2798 -13.8431
lowerback 74.0819 3.31202 -2.08824
upperback 12.9235 -2.7905 -6.00527
thorax -6.69928 -2.17324 -4.7664
lowerneck 1.86657 3.43993 -6.19094
upperneck 6.23617 4.59874 -3.91762
head 1.57753 2.02619 -0.159169
rclavicle -3.18055e-015 7.31528e-014
rhumerus -15.4864 18.0049 -78.0094
rradius 40.6661
rwrist 7.16045
rhand -13.3778 -341.704
rfingers 7.12502
rthumb 12.729 -371.296
lclavicle -3.18055e-015 7.31528e-014
lhumerus -365.749 22.1105 -296.637
lradius 28.5264
lwrist -16.9514
lhand -23.4052 349.809
lfingers 7.12502
lthumb 3.05175 379.767
rfemur -16.7359 -39.6177 -25.6592
rtibia 130.959
rfoot 4.29385 65.1876
rtoes 23.5165
lfemur -67.9881 9.81538 -7.15832
ltibia 117.701
lfoot -16.5026 -25.88
ltoes -0.0553776
83
root 11.9775 9.32874 -2.28165 -737.536 -65.4546 -14.2981
lowerback 74.2956 3.4309 -2.16217
upperback 12.9577 -2.78972 -6.06403
thorax -6.64015 -2.18864 -4.81251
lowerneck 2.0557 3.42415 -6.23496
upperneck 6.2955 4.5534 -3.74279
head 1.55914 2.00466 -0.101392
rclavicle -1.59028e-014 -3.18055e-014
rhumerus -15.7634 17.8147 -78.1464
rradius 40.6449
rwrist 7.16298
rhand -13.1694 -341.749
rfingers 7.12502
rthumb 12.9299 -371.329
lclavicle -1.59028e-014 -3.18055e-014
lhumerus -366.058 23.2248 -297.036
lradius 28.0013
lwrist -17.7129
lhand -23.5051 349.489
lfingers 7.12502
lthumb 2.95529 379.448
rfemur -14.4174 -40.4176 -30.4273
rtibia 132.185
rfoot 6.30704 67.5112
rtoes 23.6304
lfemur -68.5124 10.5617 -6.95262
ltibia 119.188
lfoot -16.8012 -26.2285
ltoes -0.108702
84
root 11.9562 9.16766 -2.2331 -737.758 -65.6219 -14.7509
lowerback 74.5133 3.55543 -2.2359
upperback 12.9554 -2.77628 -6.10682
thorax -6.62047 -2.19746 -4.84533
lowerneck 2.2957 3.39479 -6.28669
upperneck 6.35937 4.48495 -3.56668
head 1.53382 1.97153 -0.0430015
rclavicle -6.36111e-015 -2.8625e-014
rhumerus -16.1206 17.5574 -78.2738
rradius 40.649
rwrist 7.2411
rhand -13.001 -341.803
rfingers 7.12502
rthumb 13.0923 -371.372
lclavicle -6.36111e-015 -2.8625e-014
lhumerus -366.409 24.3781 -297.438
lradius 27.437
lwrist -18.5437
lhand -23.6408 349.098
lfingers 7.12502
lthumb 2.82427 379.059
rfemur -11.9433 -41.0751 -35.4963
rtibia 133.383
rfoot 8.24525 69.9053
rtoes 23.7692
lfemur -69.0373 11.3565 -6.73609
ltibia 120.629
lfoot -17.0464 -26.6038
ltoes -0.0483807
85
root 11.9366 9.01202 -2.18558 -738.079 -65.7874 -15.132
lowerback 74.7932 3.67851 -2.30531
upperback 12.935 -2.77284 -6.17166
thorax -6.61855 -2.20776 -4.9032
lowerneck 2.58754 3.35702 -6.31854
upperneck 6.38238 4.39877 -3.37607
head 1.48719 1.93241 0.0152346
rclavicle -3.81667e-014 -3.33958e-014
rhumerus -16.4948 17.188 -78.4305
rradius 40.6694
rwrist 7.41893
rhand -12.7899 -341.865
rfingers 7.12502
rthumb 13.2957 -371.421
lclavicle -3.81667e-014 -3.33958e-014
lhumerus -366.787 25.5599 -297.889
lradius 26.9156
lwrist -19.429
lhand -23.7475 348.725
lfingers 7.12502
lthumb 2.72125 378.687
rfemur -9.41599 -41.4563 -40.6739
rtibia 134.508
rfoot 10.5296 72.2412
rtoes 23.9239
lfemur -69.482 12.1368 -6.55073
ltibia 122.004
lfoot -17.2926 -26.9525
ltoes -0.105337
86
root 11.9176 8.85847 -2.13884 -738.354 -65.94 -15.5156
lowerback 74.9854 3.78404 -2.35274
upperback 12.9699 -2.76593 -6.24285
thorax -6.56151 -2.2168 -4.97709
lowerneck 2.77677 3.29545 -6.44217
upperneck 6.44166 4.28798 -3.11087
head 1.467 1.87789 0.114007
rclavicle 5.08889e-014 5.56597e-014
rhumerus -16.793 16.7153 -78.5698
rradius 40.6455
rwrist 7.70065
rhand -12.6665 -341.922
rfingers 7.12502
rthumb 13.4146 -371.47
lclavicle 5.08889e-014 5.56597e-014
lhumerus -367.14 26.6613 -298.354
lradius 26.4241
lwrist -20.2763
lhand -23.9182 348.462
lfingers 7.12502
lthumb 2.55633 378.427
rfemur -6.86803 -41.6788 -45.9948
rtibia 135.618
rfoot 12.6115 74.5697
rtoes 23.9905
lfemur -69.9791 12.9584 -6.36402
ltibia 123.351
lfoot -17.4932 -27.3201
ltoes -0.103523
87
root 11.9005 8.70725 -2.09295 -738.57 -66.1151 -15.9722
lowerback 75.181 3.8842 -2.36479
upperback 13.0029 -2.7412 -6.31781
thorax -6.50679 -2.21677 -5.07723
lowerneck 3.03251 3.22208 -6.5212
upperneck 6.43843 4.15579 -2.89464
head 1.41848 1.81582 0.188637
rclavicle -4.13472e-014 -6.04305e-014
rhumerus -17.1091 16.1648 -78.7421
rradius 40.6219
rwrist 7.99461
rhand -12.5431 -342
rfingers 7.12502
rthumb 13.5336 -371.54
lclavicle -4.13472e-014 -6.04305e-014
lhumerus -367.477 27.843 -298.82
lradius 25.9196
lwrist -21.1316
lhand -24.0255 348.332
lfingers 7.12502
lthumb 2.45273 378.297
rfemur -4.53725 -41.6331 -51.079
rtibia 136.692
rfoot 15.4128 76.7562
rtoes 24.1727
lfemur -70.4525 13.8646 -6.12931
ltibia 124.658
lfoot -17.6874 -27.7101
ltoes -0.0661057
88
root 11.8839 8.55933 -2.04825 -738.811 -66.2938 -16.4238
lowerback 75.387 3.98302 -2.36316
upperback 13.0311 -2.71031 -6.39817
thorax -6.45693 -2.21284 -5.19215
lowerneck 3.3454 3.14756 -6.66025
upperneck 6.40064 4.01156 -2.60805
head 1.34785 1.74899 0.293727
rclavicle -4.45278e-014 -3.02153e-014
rhumerus -17.4143 15.6245 -78.9092
rradius 40.5494
rwrist 8.28169
rhand -12.4822 -342.13
rfingers 7.12502
rthumb 13.5923 -371.666
lclavicle -4.45278e-014 -3.02153e-014
lhumerus -367.894 28.8876 -299.341
lradius 25.4956
lwrist -21.9374
lhand -24.1515 348.367
lfingers 7.12502
lthumb 2.33108 378.334
rfemur -2.37668 -41.3565 -56.0156
rtibia 137.722
rfoot 18.7758 78.8324
rtoes 24.292
lfemur -70.8792 14.837 -5.86821
ltibia 125.934
lfoot -17.8491 -28.1483
ltoes 0.0235143
89
root 11.8686 8.41488 -2.00424 -738.993 -66.4544 -16.9373
lowerback 75.5901 4.06374 -2.35576
upperback 13.0673 -2.69405 -6.47544
thorax -6.39908 -2.21622 -5.29945
lowerneck 3.57338 3.07214 -6.80218
upperneck 6.42648 3.87596 -2.32873
head 1.31261 1.68269 0.39997
rclavicle -3.18055e-015 2.54444e-014
rhumerus -17.6293 15.0381 -79.1112
rradius 40.3638
rwrist 8.67429
rhand -12.5003 -342.264
rfingers 7.12502
rthumb 13.5748 -371.801
lclavicle -3.18055e-015 2.54444e-014
lhumerus -368.335 30.0355 -299.89
lradius 25.1045
lwrist -22.7007
lhand -24.266 348.505
lfingers 7.12502
lthumb 2.22051 378.473
rfemur -0.477088 -40.8913 -60.6114
rtibia 138.695
rfoot 22.7599 80.7451
rtoes 24.4299
lfemur -71.3048 15.8255 -5.58172
ltibia 127.169
lfoot -17.9839 -28.5947
ltoes 0.0173369
